<?xml version="1.0" standalone="no"?>
<!DOCTYPE svg PUBLIC "-//W3C//DTD SVG 20010904//EN"
 "http://www.w3.org/TR/2001/REC-SVG-20010904/DTD/svg10.dtd">
<svg version="1.0" xmlns="http://www.w3.org/2000/svg"
 width="144.000000pt" height="144.000000pt" viewBox="0 0 144.000000 144.000000"
 preserveAspectRatio="xMidYMid meet">
<metadata>
Created by potrace 1.14, written by Peter Selinger 2001-2017
</metadata>
<g transform="translate(0.000000,144.000000) scale(0.100000,-0.100000)"
fill="#000000" stroke="none">
<path d="M661 1374 c-41 -52 -16 -121 46 -128 46 -6 83 32 78 82 -6 69 -83 98
-124 46z m93 -15 c27 -39 0 -99 -46 -99 -27 0 -52 44 -43 77 3 15 12 31 18 35
22 14 56 8 71 -13z"/>
<path d="M934 1358 c-28 -45 -62 -128 -53 -133 5 -4 19 17 31 45 24 58 30 54
42 -32 4 -26 11 -50 17 -53 7 -5 69 110 69 129 0 20 -19 -1 -40 -41 l-23 -48
-11 67 c-13 73 -19 87 -32 66z"/>
<path d="M428 1334 c-21 -9 -38 -22 -38 -29 0 -23 50 -125 61 -125 7 0 8 7 4
18 -17 40 -16 49 3 54 11 3 34 -3 51 -13 18 -11 37 -19 43 -19 16 0 -21 38
-43 45 -17 6 -18 8 -4 22 14 13 14 18 2 37 -18 27 -33 29 -79 10z m62 -19 c10
-12 6 -18 -22 -35 -31 -19 -34 -19 -45 -3 -18 23 -16 28 10 41 31 15 43 14 57
-3z"/>
<path d="M1170 1213 c0 -3 7 -14 15 -23 15 -16 12 -21 -34 -60 -28 -24 -48
-47 -45 -52 3 -4 29 12 58 37 l53 45 15 -22 c8 -12 17 -17 20 -12 4 5 -11 28
-32 52 -37 40 -50 50 -50 35z"/>
<path d="M227 1184 c-52 -28 -44 -100 14 -133 36 -20 75 -7 95 30 34 67 -40
138 -109 103z m82 -35 c25 -24 26 -37 5 -67 -19 -28 -51 -28 -81 0 -29 27 -30
62 -2 81 24 17 49 13 78 -14z"/>
<path d="M695 1100 c-40 -9 -72 -29 -83 -55 -6 -13 -27 -25 -57 -33 -51 -14
-153 -76 -162 -99 -3 -8 -23 -21 -44 -29 -50 -21 -73 -56 -66 -105 7 -55 47
-89 104 -89 16 0 33 -4 38 -9 22 -21 99 -28 148 -14 35 10 52 11 65 3 15 -10
15 -10 -3 -6 -11 3 -40 0 -64 -8 -46 -13 -122 -5 -148 16 -7 6 -13 9 -13 6 0
-2 22 -64 49 -138 l48 -135 209 -1 c144 -1 211 2 216 10 4 6 26 70 50 142 30
94 46 130 55 127 7 -3 29 -2 48 1 95 18 117 138 34 181 -16 9 -48 34 -69 55
-43 43 -112 82 -177 99 -27 7 -44 19 -48 31 -11 35 -80 61 -130 50z m158 -435
c46 -19 84 -19 121 0 16 9 31 14 33 11 7 -7 -65 -36 -91 -36 -15 0 -43 7 -63
15 -33 14 -41 14 -75 0 -21 -8 -44 -15 -51 -14 -10 0 66 35 84 38 4 1 23 -6
42 -14z m-166 -11 c-3 -3 -12 -4 -19 -1 -8 3 -5 6 6 6 11 1 17 -2 13 -5z"/>
<path d="M1264 979 c-26 -9 -54 -46 -54 -70 0 -9 9 -28 21 -43 28 -35 80 -36
114 -1 58 57 -3 144 -81 114z m70 -28 c38 -42 -9 -102 -67 -87 -54 13 -41 88
17 99 11 2 24 5 27 6 3 0 14 -8 23 -18z"/>
<path d="M77 932 c-19 -53 -22 -76 -7 -67 6 3 10 14 10 25 0 17 3 17 48 3 71
-23 92 -26 92 -16 0 6 -27 18 -61 28 -54 17 -60 21 -56 42 8 43 -9 33 -26 -15z"/>
<path d="M112 680 c-1 -35 2 -50 10 -50 8 0 13 14 12 38 -2 54 -3 62 -12 62
-4 0 -9 -22 -10 -50z"/>
<path d="M1313 708 c-1 -13 -4 -35 -8 -49 -5 -19 -2 -28 8 -32 10 -4 15 1 16
16 0 12 2 35 3 51 2 16 -1 31 -7 33 -5 1 -11 -7 -12 -19z"/>
<path d="M143 555 c-53 -23 -69 -79 -33 -115 21 -21 60 -27 60 -10 0 6 -8 10
-18 10 -24 0 -42 19 -42 45 0 53 90 78 112 30 8 -18 8 -28 -1 -39 -8 -9 -8
-16 -2 -20 19 -12 34 33 21 64 -16 38 -56 52 -97 35z"/>
<path d="M1202 520 c-24 -57 -27 -53 68 -89 65 -25 60 -24 60 -8 0 8 7 28 16
46 8 17 13 37 11 44 -3 6 -13 -7 -23 -30 -19 -44 -28 -49 -53 -34 -12 8 -12
14 -2 40 7 16 11 36 8 43 -2 7 -12 -6 -21 -28 -14 -33 -21 -41 -37 -37 -23 6
-23 13 -5 58 8 19 11 37 7 40 -5 2 -18 -18 -29 -45z"/>
<path d="M258 347 c-21 -22 -38 -51 -38 -63 0 -23 42 -64 65 -64 13 0 105 82
105 93 0 16 -20 4 -58 -33 -44 -44 -53 -47 -76 -24 -24 24 -20 40 24 84 22 22
40 42 40 45 0 16 -30 -2 -62 -38z"/>
<path d="M1117 383 c-2 -4 -4 -32 -2 -61 l2 -53 -27 26 c-16 15 -30 23 -33 18
-4 -5 18 -33 48 -62 29 -28 56 -48 59 -43 3 5 -4 19 -15 31 -32 34 -19 49 35
41 26 -4 49 -3 52 1 5 9 -19 16 -71 22 -27 3 -30 7 -30 40 0 36 -9 55 -18 40z"/>
<path d="M440 195 c-13 -35 -23 -66 -22 -69 5 -14 18 -5 23 16 3 14 12 21 20
19 67 -20 104 -5 97 40 -2 15 -17 27 -49 39 l-45 18 -24 -63z m74 25 c49 -18
24 -65 -25 -48 -33 11 -33 12 -19 39 12 22 11 22 44 9z"/>
<path d="M908 223 c-7 -31 3 -153 13 -153 5 0 9 13 9 28 0 38 43 61 70 37 9
-8 23 -15 30 -15 8 0 -12 27 -45 60 -33 33 -62 60 -66 60 -4 0 -8 -8 -11 -17z
m44 -37 c16 -22 16 -25 1 -30 -20 -8 -23 -5 -29 28 -6 32 6 33 28 2z"/>
<path d="M677 185 c-10 -7 -21 -31 -24 -53 -5 -34 -1 -45 20 -66 14 -14 37
-26 50 -26 25 0 75 44 60 53 -5 3 -17 -3 -26 -14 -39 -45 -96 -1 -79 63 6 25
14 34 34 36 14 2 33 -4 41 -13 9 -8 18 -11 21 -6 10 15 -23 41 -52 41 -15 0
-35 -7 -45 -15z"/>
</g>
</svg>
